<svg width="64" height="64" xmlns="http://www.w3.org/2000/svg">

 <title/>
 <g>
  <title>background</title>
  <rect fill="none" id="canvas_background" height="402" width="582" y="-1" x="-1"/>
 </g>
 <g>
  <title>Layer 1</title>
  <rect stroke-width="2px" stroke-linejoin="round" stroke-linecap="round" stroke="#ffffff" fill="none" id="svg_1" y="24.83" x="1" width="23.47" height="32.89" class="cls-1"/>
  <circle stroke-width="2px" stroke-linejoin="round" stroke-linecap="round" stroke="#fcfcfc" fill="none" id="svg_2" r="2.6" cy="31.87" cx="17.62" class="cls-1"/>
  <circle stroke-width="2px" stroke-linejoin="round" stroke-linecap="round" stroke="#fcf9f9" fill="none" id="svg_3" r="2.6" cy="41.26" cx="17.62" class="cls-1"/>
  <path stroke-width="2px" stroke-linejoin="round" stroke-linecap="round" stroke="#ffffff" fill="none" id="svg_4" d="m61.08,30.21a3.44,3.44 0 0 0 1.19,-3.72c-1,-3.07 -3.61,-5.76 -6.72,-5.76l-15.72,0l1.88,-3.44a9.92,9.92 0 0 0 1.22,-4.76l0,-3.4a3.84,3.84 0 0 0 -3.84,-3.83l0,0a3.84,3.84 0 0 0 -3.83,3.83l0,0a9.9,9.9 0 0 1 -2.58,6.67l-8.21,9l0,32.92l31.32,0a6.84,6.84 0 0 0 6.85,-6.85l0,0a3.82,3.82 0 0 0 -1.12,-2.7l0,0a4.45,4.45 0 0 0 1.15,-3l0,-3.63a3.6,3.6 0 0 0 -1.47,-2.89l0,0a2.45,2.45 0 0 0 1.47,-2.24l0,-3.49a3.12,3.12 0 0 0 -1.59,-2.71z" class="cls-1"/>
 </g>
</svg>