<svg width="256" height="256" xmlns="http://www.w3.org/2000/svg">

 <g>
  <title>background</title>
  <rect fill="none" id="canvas_background" height="402" width="582" y="-1" x="-1"/>
 </g>
 <g>
  <title>Layer 1</title>
  <path fill="#f9f9f9" id="svg_2" d="m159.9,234.9c-4.9,0 -8.9,4 -8.9,8.9c0,4.9 4,8.9 8.9,8.9c4.9,0 8.9,-4 8.9,-8.9c0,-5 -4,-8.9 -8.9,-8.9z"/>
  <path fill="#f9f9f9" stroke="#fffffc" id="svg_3" d="m43.9,234.9c-4.9,0 -8.9,4 -8.9,8.9c0,4.9 4,8.9 8.9,8.9s8.9,-4 8.9,-8.9c0,-5 -3.9,-8.9 -8.9,-8.9z"/>
  <path fill="#f9f9f9" id="svg_4" d="m44.4,164.5l132.7,0l3.4,-0.3l62.2,-146.2c1.1,-2.6 -0.1,-5.5 -2.7,-6.6c-2.6,-1.1 -5.5,0.1 -6.6,2.7l-59.6,140.4l-129.7,0l-0.6,0c-10.7,1.3 -20.4,7.8 -25.9,17.2c-3.5,6 -5.1,12.9 -4.6,19.8c1.2,18.3 17,32.6 35.9,32.6l137.7,0c2.8,0 5.1,-2.3 5.1,-5.1c0,-2.8 -2.3,-5.1 -5.1,-5.1l-137.7,0c-13.6,0 -25,-10.2 -25.8,-23.2c-0.3,-5 0.8,-9.8 3.3,-14.1c3.8,-6.5 10.5,-11 18,-12.1z"/>
  <path fill="#fcfcf9" id="svg_5" d="m39.4,63.8l4.8,0c4.2,21.8 6.5,44.4 6.7,67.2c0.1,5.7 4.7,10.3 10.4,10.3l92,0c5.7,0 10.3,-4.6 10.4,-10.3c0.2,-22.8 2.5,-45.4 6.7,-67.2l4.8,0c2.8,0 5.1,-2.3 5.1,-5.1c0,-2.8 -2.3,-5.1 -5.1,-5.1l-26.7,0l-16.4,-47c-0.9,-2.6 -3.8,-4 -6.4,-3.1c-2.6,0.9 -4,3.8 -3.1,6.4l15.2,43.7l-61.1,0l18,-43.4c1.1,-2.6 -0.1,-5.5 -2.7,-6.6c-2.6,-1.1 -5.5,0.1 -6.6,2.7l-19.3,46.7c-0.1,0.3 -0.1,0.5 -0.2,0.8l-26.5,0c-2.8,0 -5.1,2.3 -5.1,5.1c0.1,2.7 2.3,4.9 5.1,4.9zm120.8,0c-4.1,21.9 -6.4,44.4 -6.8,67.4l-92.3,-0.2c-0.2,-22.7 -2.5,-45.3 -6.6,-67.1l105.7,0l0,-0.1z"/>
  <path fill="#f9f9f7" id="svg_6" d="m80.4,119.6c2.8,0 5.1,-2.3 5.1,-5.1l0,-34c0,-2.8 -2.3,-5.1 -5.1,-5.1s-5.1,2.3 -5.1,5.1l0,34.1c0.1,2.8 2.4,5 5.1,5z"/>
  <path fill="#f9f9f7" id="svg_7" d="m107.3,119.6c2.8,0 5.1,-2.3 5.1,-5.1l0,-34c0,-2.8 -2.3,-5.1 -5.1,-5.1c-2.8,0 -5.1,2.3 -5.1,5.1l0,34.1c0.1,2.8 2.4,5 5.1,5z"/>
  <path fill="#f9f9f7" id="svg_8" d="m134.2,119.6c2.8,0 5.1,-2.3 5.1,-5.1l0,-34c0,-2.8 -2.3,-5.1 -5.1,-5.1s-5.1,2.3 -5.1,5.1l0,34.1c0.1,2.8 2.3,5 5.1,5z"/>
 </g>
</svg>