<?xml version="1.0" encoding="UTF-8"?>
<svg xmlns="http://www.w3.org/2000/svg" xmlns:xlink="http://www.w3.org/1999/xlink" width="100px" height="100px" viewBox="0 0 100 100" version="1.1">
<g id="surface33266">
<path style=" stroke:none;fill-rule:nonzero;fill:rgb(100%,100%,100%);fill-opacity:1;" d="M 49.96875 3.972656 C 49.855469 3.976562 49.742188 3.988281 49.628906 4.007812 C 24.476562 4.207031 4.21875 24.457031 4.007812 49.609375 C 3.960938 49.859375 3.960938 50.117188 4.007812 50.367188 C 4.203125 75.523438 24.457031 95.785156 49.609375 95.992188 C 49.859375 96.039062 50.117188 96.039062 50.367188 95.992188 C 75.523438 95.796875 95.785156 75.542969 95.992188 50.390625 C 96.042969 50.132812 96.039062 49.867188 95.988281 49.609375 C 95.917969 41.328125 93.640625 33.605469 89.871094 27.007812 C 89.523438 26.371094 88.859375 25.972656 88.136719 25.964844 C 87.414062 25.957031 86.742188 26.34375 86.382812 26.96875 C 86.019531 27.597656 86.027344 28.371094 86.398438 28.992188 C 89.597656 34.585938 91.605469 41.058594 91.933594 48 L 88 48 C 87.277344 47.988281 86.609375 48.367188 86.246094 48.992188 C 85.878906 49.613281 85.878906 50.386719 86.246094 51.007812 C 86.609375 51.632812 87.277344 52.011719 88 52 L 91.949219 52 C 90.945312 73.707031 73.707031 90.945312 52 91.949219 L 52 88 C 52.007812 87.460938 51.796875 86.9375 51.414062 86.558594 C 51.03125 86.175781 50.507812 85.964844 49.96875 85.972656 C 48.867188 85.988281 47.984375 86.898438 48 88 L 48 91.949219 C 26.292969 90.945312 9.054688 73.707031 8.050781 52 L 12 52 C 12.722656 52.011719 13.390625 51.632812 13.753906 51.007812 C 14.121094 50.386719 14.121094 49.613281 13.753906 48.992188 C 13.390625 48.367188 12.722656 47.988281 12 48 L 8.046875 48 C 9.050781 26.292969 26.292969 9.054688 48 8.050781 L 48 12 C 47.988281 12.722656 48.367188 13.390625 48.992188 13.753906 C 49.613281 14.121094 50.386719 14.121094 51.007812 13.753906 C 51.632812 13.390625 52.011719 12.722656 52 12 L 52 8.085938 C 60.855469 8.511719 69.050781 11.703125 75.742188 16.761719 C 76.3125 17.191406 77.070312 17.289062 77.726562 17.007812 C 78.386719 16.730469 78.847656 16.121094 78.933594 15.414062 C 79.023438 14.703125 78.726562 14 78.15625 13.570312 C 70.417969 7.722656 60.792969 4.109375 50.40625 4.015625 C 50.261719 3.984375 50.117188 3.972656 49.96875 3.972656 Z M 94.074219 7.980469 C 93.484375 7.964844 92.917969 8.207031 92.527344 8.648438 L 49.9375 55.109375 L 33.414062 38.585938 C 32.914062 38.0625 32.167969 37.851562 31.464844 38.035156 C 30.765625 38.21875 30.21875 38.765625 30.035156 39.464844 C 29.851562 40.167969 30.0625 40.914062 30.585938 41.414062 L 50.0625 60.890625 L 95.472656 11.351562 C 96.011719 10.777344 96.167969 9.941406 95.863281 9.214844 C 95.5625 8.484375 94.863281 8.003906 94.074219 7.980469 Z M 94.074219 7.980469 "/>
</g>
</svg>
