<svg id="Слой_2" data-name="Слой 2" xmlns="http://www.w3.org/2000/svg" viewBox="0 0 412.24 237.02"><defs><style>.cls-1{fill:#809c30;}</style></defs><title>logo ansar</title><path class="cls-1" d="M46,198.6c-3.13-3.87-2.23-9.27-1.81-11.78A26.48,26.48,0,0,1,49.66,175a30.77,30.77,0,0,1,11.78-10,29.85,29.85,0,0,1,10-2.72l1.81,9.06A21.53,21.53,0,0,0,61.44,175a15.81,15.81,0,0,0-6.34,7.25,14.66,14.66,0,0,0-.91,7.25,18.85,18.85,0,0,0,5.44,0,18.11,18.11,0,0,0,3.62-.91c5.19-1.94,7.89-6.28,9.06-8.15A10,10,0,0,0,74.12,176a8.64,8.64,0,0,0-.91-4.53l-1.81-9.06a6.51,6.51,0,0,1,4.53,1.81,6.68,6.68,0,0,1,1.81,5.44l9.06-6.34c-.15,1.94-.78,10.58,0,16.31a17.23,17.23,0,0,0,.91,3.62c.61,1.66,1.52,4.12,3.62,5.44a7.77,7.77,0,0,0,4.53.91c5.61-.07,8.42-.1,11.78-.91a43.59,43.59,0,0,0,15.4-7.25,19.22,19.22,0,0,1-1.81,9.06c-2.34,4.9-6.2,7.32-9.06,9.06-10.06,6.12-20.48,4.42-25.36,3.62a13.85,13.85,0,0,1-5.44-1.81C75.9,198,75.16,190.45,75,188.63l-6.34,5.44c-3.59,3.09-5.51,4.53-7.25,5.44-2.43,1.26-7.2,3.73-11.78,1.81A9.39,9.39,0,0,1,46,198.6Z" transform="translate(-43.78 -35.98)"/><path class="cls-1" d="M133,202.22V162.36a16.42,16.42,0,0,0,10-5.44l-.91,17.21a15.9,15.9,0,0,0,8.15,2.72A16.62,16.62,0,0,0,162,172.33l5.44-14.49,9.06-1.81a79,79,0,0,0-3.62,10.87c-.58,2.29-1,4.85-1.81,10-.78,4.88-1,6.85,0,9.06a10.25,10.25,0,0,0,2.72,3.62c5.49,4.93,15.35,4.83,22.65,1.81a26.22,26.22,0,0,0,7.25-4.53,14,14,0,0,1-.91,7.25c-2.86,6.72-10.55,8.55-12.68,9.06-10,2.38-18.23-3.31-19.93-4.53a26.74,26.74,0,0,1-10-14.49,10.57,10.57,0,0,1-6.34,3.62c-1.85.26-3.37-.13-6.34-.91a42,42,0,0,1-5.44-1.81l-2.72,12.68Z" transform="translate(-43.78 -35.98)"/><path class="cls-1" d="M236.27,173.23l6.34-4.53a9.62,9.62,0,0,0,0-6.34c-2.09-5.46-9.19-6.27-10-6.34-7.87-.77-13.5,6-14.49,7.25a23.84,23.84,0,0,0-3.62,6.34,36.17,36.17,0,0,0-2.72,10.87c-.5,4.34-.77,6.78,0,10,.25,1,1.89,7.2,7.25,10.87,5.07,3.47,10.93,2.62,22.65.91,6.88-1,10.32-1.63,13.59-3.62,6.42-3.91,8.94-11.08,10-15.4a47,47,0,0,1-7.25,4.53c-9,4.56-16.83,4.79-23.1,5-3.29.1-5.87-.07-8.61-1.36a12.5,12.5,0,0,1-5.44-4.53,13.27,13.27,0,0,1-1.81-8.15,13.9,13.9,0,0,1,2.72-8.15,12.73,12.73,0,0,1,4.53-3.62c1.56-.74,3.53-1.67,5.44-.91a6.18,6.18,0,0,1,2.72,2.72A12.21,12.21,0,0,1,236.27,173.23Z" transform="translate(-43.78 -35.98)"/><path class="cls-1" d="M272.5,188.63a23.44,23.44,0,0,1,1.81-7.25,31.56,31.56,0,0,1,5.89-9.51,32.1,32.1,0,0,1,8.61-6.79l5.44,8.15a36.56,36.56,0,0,0-7.25,5.44,14.79,14.79,0,0,0-3.62,4.53,12.51,12.51,0,0,0-.91,7.25,21.72,21.72,0,0,0,4.53-.91,25,25,0,0,0,9.06-5.44,24.18,24.18,0,0,0,6.34-7.25,21.21,21.21,0,0,0,1.81-4.53,10.08,10.08,0,0,0-10,.91l-5.44-8.15a16.31,16.31,0,0,1,7.25-2.72c2.17-.25,4.41-.5,6.34.91,2.75,2,2.73,5.8,2.72,6.34l10-6.34c0,1.29-.38,10.21,0,16.31a16.4,16.4,0,0,0,.91,4.53,9.52,9.52,0,0,0,2.72,4.53,8.14,8.14,0,0,0,4.53,1.81,45.69,45.69,0,0,0,7.25-.91,57.93,57.93,0,0,0,10.87-3.62c2.64-1.07,6.05-2.56,10-4.53a14.58,14.58,0,0,1-.91,7.25c-1.39,3.42-3.78,5.27-6.34,7.25a33.38,33.38,0,0,1-10.87,5.44,35.86,35.86,0,0,1-9.06,1.81c-5.08.32-10.39.66-14.49-2.72-3.22-2.65-5-7-5.44-8.15a23.57,23.57,0,0,1-.91-2.72c-1,1.1-2.55,2.71-4.53,4.53a45.11,45.11,0,0,1-8.15,6.34c-2.47,1.45-4,2.33-6.34,2.72-1.36.22-4.54.71-7.25-.91C271.76,199.07,272.38,190.38,272.5,188.63Z" transform="translate(-43.78 -35.98)"/><path class="cls-1" d="M412,156l13.59,10.87a23.43,23.43,0,0,1,8.15-5.44c2.7-1.06,7.64-3,12.68-.91,4.25,1.77,6.26,5.45,7.25,7.25,3.28,6,2.34,12,1.81,15.4-.5,3.19-1.3,8.35-5.44,12.68a15.17,15.17,0,0,1-7.25,4.53,14.23,14.23,0,0,1-7.25,0c-7-1.93-9.68-9.16-10-10l3.62-3.62c1.22.54,2.75,1.17,4.53,1.81,4.78,1.73,6.56,1.8,7.25,1.81a7.35,7.35,0,0,0,4.53-.91c1.68-1.12,2.22-2.89,2.72-4.53a12.1,12.1,0,0,0,0-8.15,9.81,9.81,0,0,0-4.53-5.44,9.26,9.26,0,0,0-5.44-.91,9.76,9.76,0,0,0-4.53,1.81,41,41,0,0,0-8.15,10.87,45.82,45.82,0,0,0-3.62,10A63.13,63.13,0,0,0,420.15,204a238.12,238.12,0,0,1-4.53,29c-2.37,10.49-4.71,15.65-5.44,17.21-1.87,4-4.19,8.84-9.06,13.59a30.08,30.08,0,0,1-10.87,7.25,31.69,31.69,0,0,1-10,1.81,29.37,29.37,0,0,1-10.87-.91c-2.22-.68-8.2-2.52-11.78-8.15-5-7.92-1.33-17.1-.91-18.12a26.74,26.74,0,0,0,27.18,13.59A26.69,26.69,0,0,0,398.41,252c4.54-4.35,6.26-9.09,8.15-14.49a66.32,66.32,0,0,0,3.62-18.12C410.91,206.94,411.75,184.66,412,156Z" transform="translate(-43.78 -35.98)"/><path class="cls-1" d="M250.31,36C277,36.64,301,59.66,299.22,87.63c-1.7,27.18-26.93,47.24-53.44,45.29-27-2-48.94-26.32-46.2-53.44C202.16,53.95,225.67,35.41,250.31,36Z" transform="translate(-43.78 -35.98)"/></svg>