<svg id="Слой_2" data-name="Слой 2" xmlns="http://www.w3.org/2000/svg" viewBox="0 0 455.09 261.65"><defs><style>.cls-1{fill:#809c30;}</style></defs><title>logo ansar</title><path class="cls-1" d="M24.5,198.5c-3.45-4.27-2.46-10.23-2-13a29.23,29.23,0,0,1,6-13,34,34,0,0,1,13-11,33,33,0,0,1,11-3l2,10a23.76,23.76,0,0,0-13,4,17.45,17.45,0,0,0-7,8,16.19,16.19,0,0,0-1,8,20.81,20.81,0,0,0,6,0,20,20,0,0,0,4-1c5.73-2.14,8.71-6.93,10-9,1.74-2.79,1.94-4.34,2-5a9.54,9.54,0,0,0-1-5l-2-10a7.19,7.19,0,0,1,5,2,7.37,7.37,0,0,1,2,6l10-7c-.17,2.14-.87,11.68,0,18a19,19,0,0,0,1,4c.67,1.83,1.67,4.55,4,6a8.58,8.58,0,0,0,5,1c6.2-.07,9.3-.11,13-1a48.12,48.12,0,0,0,17-8,21.22,21.22,0,0,1-2,10c-2.59,5.41-6.85,8.08-10,10-11.1,6.76-22.61,4.88-28,4a15.29,15.29,0,0,1-6-2c-6-3.66-6.85-12-7-14l-7,6c-4,3.41-6.08,5-8,6-2.68,1.39-7.94,4.12-13,2A10.37,10.37,0,0,1,24.5,198.5Z" transform="translate(-22.01 -18.98)"/><path class="cls-1" d="M120.5,202.5v-44a18.12,18.12,0,0,0,11-6l-1,19a17.55,17.55,0,0,0,9,3,18.35,18.35,0,0,0,13-5l6-16,10-2a87.25,87.25,0,0,0-4,12c-.64,2.52-1.09,5.35-2,11-.86,5.39-1.05,7.56,0,10a11.31,11.31,0,0,0,3,4c6.06,5.45,16.94,5.34,25,2a29,29,0,0,0,8-5,15.41,15.41,0,0,1-1,8c-3.15,7.42-11.65,9.44-14,10-11,2.62-20.13-3.65-22-5a29.52,29.52,0,0,1-11-16,11.67,11.67,0,0,1-7,4c-2,.29-3.72-.15-7-1a46.33,46.33,0,0,1-6-2l-3,14Z" transform="translate(-22.01 -18.98)"/><path class="cls-1" d="M234.5,170.5l7-5a10.62,10.62,0,0,0,0-7c-2.3-6-10.15-6.92-11-7-8.68-.85-14.9,6.68-16,8a26.31,26.31,0,0,0-4,7,39.93,39.93,0,0,0-3,12c-.55,4.79-.85,7.48,0,11,.27,1.12,2.08,7.95,8,12,5.6,3.83,12.06,2.89,25,1,7.59-1.11,11.4-1.8,15-4,7.08-4.32,9.87-12.23,11-17a51.83,51.83,0,0,1-8,5c-10,5-18.58,5.29-25.5,5.5-3.64.11-6.48-.07-9.5-1.5a13.8,13.8,0,0,1-6-5,14.65,14.65,0,0,1-2-9,15.34,15.34,0,0,1,3-9,14,14,0,0,1,5-4c1.72-.82,3.89-1.85,6-1,1.39.56,2.13,1.68,3,3A13.48,13.48,0,0,1,234.5,170.5Z" transform="translate(-22.01 -18.98)"/><path class="cls-1" d="M274.5,187.5a25.88,25.88,0,0,1,2-8A34.84,34.84,0,0,1,283,169a35.43,35.43,0,0,1,9.5-7.5l6,9a40.36,40.36,0,0,0-8,6,16.33,16.33,0,0,0-4,5,13.81,13.81,0,0,0-1,8,24,24,0,0,0,5-1,27.56,27.56,0,0,0,10-6,26.69,26.69,0,0,0,7-8,23.41,23.41,0,0,0,2-5,11.13,11.13,0,0,0-11,1l-6-9a18,18,0,0,1,8-3c2.4-.27,4.87-.55,7,1,3,2.21,3,6.4,3,7l11-7c-.05,1.43-.42,11.28,0,18a18.11,18.11,0,0,0,1,5,10.51,10.51,0,0,0,3,5,9,9,0,0,0,5,2,50.44,50.44,0,0,0,8-1,64,64,0,0,0,12-4c2.92-1.18,6.68-2.82,11-5a16.1,16.1,0,0,1-1,8c-1.54,3.78-4.17,5.82-7,8a36.85,36.85,0,0,1-12,6,39.58,39.58,0,0,1-10,2c-5.61.36-11.47.73-16-3-3.55-2.92-5.48-7.7-6-9a26,26,0,0,1-1-3c-1.12,1.22-2.81,3-5,5a49.79,49.79,0,0,1-9,7c-2.73,1.6-4.4,2.58-7,3-1.5.24-5,.79-8-1C273.69,199,274.36,189.43,274.5,187.5Z" transform="translate(-22.01 -18.98)"/><path class="cls-1" d="M428.5,151.5l15,12a25.87,25.87,0,0,1,9-6c3-1.17,8.44-3.32,14-1,4.69,2,6.91,6,8,8,3.62,6.61,2.59,13.24,2,17-.55,3.52-1.44,9.22-6,14a16.75,16.75,0,0,1-8,5,15.71,15.71,0,0,1-8,0c-7.73-2.13-10.69-10.11-11-11l4-4c1.35.59,3,1.29,5,2,5.27,1.9,7.25,2,8,2,1.78,0,3.43,0,5-1,1.85-1.24,2.45-3.19,3-5a13.36,13.36,0,0,0,0-9,10.83,10.83,0,0,0-5-6,10.23,10.23,0,0,0-6-1,10.77,10.77,0,0,0-5,2,45.22,45.22,0,0,0-9,12,50.59,50.59,0,0,0-4,11,69.69,69.69,0,0,0-2,12,262.87,262.87,0,0,1-5,32c-2.61,11.58-5.2,17.28-6,19-2.07,4.42-4.62,9.75-10,15a33.21,33.21,0,0,1-12,8,35,35,0,0,1-11,2,32.43,32.43,0,0,1-12-1c-2.45-.75-9.05-2.78-13-9-5.55-8.74-1.47-18.88-1-20a29.52,29.52,0,0,0,30,15,29.47,29.47,0,0,0,16-8c5-4.8,6.91-10,9-16a73.21,73.21,0,0,0,4-20C427.3,207.71,428.22,183.11,428.5,151.5Z" transform="translate(-22.01 -18.98)"/><path class="cls-1" d="M250,19c29.47.71,55.93,26.12,54,57-1.87,30-29.72,52.16-59,50-29.8-2.19-54-29.06-51-59C196.85,38.81,222.81,18.35,250,19Z" transform="translate(-22.01 -18.98)"/></svg>